<svg width="25" height="21" viewBox="0 0 25 21" fill="none" xmlns="http://www.w3.org/2000/svg">
<path d="M5.66669 4.25001L8.50002 1.41667L11.3334 4.25001" stroke="black" stroke-width="1.5" stroke-linecap="square" stroke-linejoin="round"/>
<path d="M9.25 1.41667C9.25 1.00246 8.91421 0.666672 8.5 0.666672C8.08579 0.666672 7.75 1.00246 7.75 1.41667H9.25ZM7.75 15.5833V16.3333H9.25V15.5833H7.75ZM7.75 1.41667V15.5833H9.25V1.41667H7.75Z" fill="black"/>
<path d="M19.3333 16.75L16.5 19.5833L13.6666 16.75" stroke="black" stroke-width="1.5" stroke-linecap="square" stroke-linejoin="round"/>
<path d="M15.75 19.5833C15.75 19.9975 16.0858 20.3333 16.5 20.3333C16.9142 20.3333 17.25 19.9975 17.25 19.5833L15.75 19.5833ZM17.25 5.41666L17.25 4.66666L15.75 4.66666L15.75 5.41666L17.25 5.41666ZM17.25 19.5833L17.25 5.41666L15.75 5.41666L15.75 19.5833L17.25 19.5833Z" fill="black"/>
</svg>
