<svg width="25" height="21" viewBox="0 0 25 21" fill="none" xmlns="http://www.w3.org/2000/svg">
<path d="M5.66669 4.25001L8.50002 1.41667L11.3334 4.25001" stroke="black" stroke-linecap="square" stroke-linejoin="round"/>
<path d="M9 1.41667C9 1.14053 8.77614 0.916672 8.5 0.916672C8.22386 0.916672 8 1.14053 8 1.41667H9ZM8 15.5833V16.0833H9V15.5833H8ZM8 1.41667V15.5833H9V1.41667H8Z" fill="black"/>
<path d="M19.3333 16.75L16.5 19.5833L13.6666 16.75" stroke="black" stroke-linecap="square" stroke-linejoin="round"/>
<path d="M16 19.5833C16 19.8595 16.2239 20.0833 16.5 20.0833C16.7761 20.0833 17 19.8595 17 19.5833L16 19.5833ZM17 5.41666L17 4.91666L16 4.91666L16 5.41666L17 5.41666ZM17 19.5833L17 5.41666L16 5.41666L16 19.5833L17 19.5833Z" fill="black"/>
</svg>
