{
  "accessors": [
    {
      "name": "coin-Mesh_0_positions",
      "componentType": 5126,
      "count": 1926,
      "min": [
        -2.444204092025757,
        -2.444204092025757,
        -0.3350619971752167
      ],
      "max": [
        2.444204092025757,
        2.444204092025757,
        0.3350619971752167
      ],
      "type": "VEC3",
      "bufferView": 0,
      "byteOffset": 0
    },
    {
      "name": "coin-Mesh_0_normals",
      "componentType": 5126,
      "count": 1926,
      "min": [
        -0.999218761920929,
        -0.999218761920929,
        -1
      ],
      "max": [
        0.999218761920929,
        0.999218761920929,
        1
      ],
      "type": "VEC3",
      "bufferView": 1,
      "byteOffset": 0
    },
    {
      "name": "coin-Mesh_0_texcoords",
      "componentType": 5126,
      "count": 1926,
      "min": [
        0.019512999802827835,
        0.0184480007737875
      ],
      "max": [
        0.9417030215263367,
        0.11700300127267838
      ],
      "type": "VEC2",
      "bufferView": 2,
      "byteOffset": 0
    },
    {
      "name": "coin-Mesh_0_indices",
      "componentType": 5123,
      "count": 6912,
      "min": [
        0
      ],
      "max": [
        1925
      ],
      "type": "SCALAR",
      "bufferView": 3,
      "byteOffset": 0
    },
    {
      "name": "logo-Mesh_0_positions",
      "componentType": 5126,
      "count": 2500,
      "min": [
        -1.2203730344772339,
        -0.8894039988517761,
        -0.4098150134086609
      ],
      "max": [
        1.2928940057754517,
        1.238461971282959,
        0.41427499055862427
      ],
      "type": "VEC3",
      "bufferView": 0,
      "byteOffset": 23112
    },
    {
      "name": "logo-Mesh_0_normals",
      "componentType": 5126,
      "count": 2500,
      "min": [
        -1,
        -1,
        -1
      ],
      "max": [
        1,
        0.9964410662651062,
        1
      ],
      "type": "VEC3",
      "bufferView": 1,
      "byteOffset": 23112
    },
    {
      "name": "logo-Mesh_0_texcoords",
      "componentType": 5126,
      "count": 2500,
      "min": [
        0,
        0
      ],
      "max": [
        1,
        1
      ],
      "type": "VEC2",
      "bufferView": 2,
      "byteOffset": 15408
    },
    {
      "name": "logo-Mesh_0_indices",
      "componentType": 5123,
      "count": 7332,
      "min": [
        0
      ],
      "max": [
        2499
      ],
      "type": "SCALAR",
      "bufferView": 3,
      "byteOffset": 13824
    }
  ],
  "asset": {
    "generator": "obj2gltf",
    "version": "2.0"
  },
  "buffers": [
    {
      "name": "coin",
      "byteLength": 170120,
      "uri": "data:application/octet-stream;base64,"
    }
  ],
  "bufferViews": [
    {
      "name": "bufferView_0",
      "buffer": 0,
      "byteLength": 53112,
      "byteOffset": 0,
      "byteStride": 12,
      "target": 34962
    },
    {
      "name": "bufferView_1",
      "buffer": 0,
      "byteLength": 53112,
      "byteOffset": 53112,
      "byteStride": 12,
      "target": 34962
    },
    {
      "name": "bufferView_2",
      "buffer": 0,
      "byteLength": 35408,
      "byteOffset": 106224,
      "byteStride": 8,
      "target": 34962
    },
    {
      "name": "bufferView_3",
      "buffer": 0,
      "byteLength": 28488,
      "byteOffset": 141632,
      "target": 34963
    }
  ],
  "materials": [
    {
      "name": "exterior",
      "pbrMetallicRoughness": {
        "baseColorFactor": [
          0.21404114365578,
          0.21404114365578,
          0.21404114365578,
          1
        ],
        "metallicFactor": 0,
        "roughnessFactor": 1
      },
      "emissiveFactor": [
        0,
        0,
        0
      ],
      "alphaMode": "OPAQUE",
      "doubleSided": false
    },
    {
      "name": "interior",
      "pbrMetallicRoughness": {
        "baseColorFactor": [
          0.21404114365578,
          0.21404114365578,
          0.21404114365578,
          1
        ],
        "metallicFactor": 0,
        "roughnessFactor": 1
      },
      "emissiveFactor": [
        0,
        0,
        0
      ],
      "alphaMode": "OPAQUE",
      "doubleSided": false
    }
  ],
  "meshes": [
    {
      "name": "coin-Mesh",
      "primitives": [
        {
          "attributes": {
            "POSITION": 0,
            "NORMAL": 1,
            "TEXCOORD_0": 2
          },
          "indices": 3,
          "material": 0,
          "mode": 4
        }
      ]
    },
    {
      "name": "logo-Mesh",
      "primitives": [
        {
          "attributes": {
            "POSITION": 4,
            "NORMAL": 5,
            "TEXCOORD_0": 6
          },
          "indices": 7,
          "material": 1,
          "mode": 4
        }
      ]
    }
  ],
  "nodes": [
    {
      "name": "coin",
      "mesh": 0
    },
    {
      "name": "logo",
      "mesh": 1
    }
  ],
  "scene": 0,
  "scenes": [
    {
      "nodes": [
        0,
        1
      ]
    }
  ]
}
