<svg width="278" height="28" viewBox="0 0 278 28" fill="none" xmlns="http://www.w3.org/2000/svg">
<rect x="0.5" width="41.2333" height="27.4889" rx="6.59733" fill="black"/>
<path fill-rule="evenodd" clip-rule="evenodd" d="M10.5249 10.1215C11.0643 10.167 11.6038 9.84842 11.9409 9.44456C12.2725 9.02933 12.4916 8.47189 12.4354 7.90308C11.9578 7.92583 11.3678 8.22161 11.0306 8.63685C10.7215 8.9952 10.4574 9.57539 10.5249 10.1215ZM16.9421 17.4478V8.57996H20.2293C21.9263 8.57996 23.112 9.7631 23.112 11.4923C23.112 13.2215 21.9039 14.416 20.1844 14.416H18.3019V17.4478H16.9421ZM12.4298 10.2295C11.9545 10.2018 11.5209 10.3742 11.1706 10.5134C10.9452 10.603 10.7543 10.6789 10.6091 10.6789C10.4462 10.6789 10.2474 10.599 10.0243 10.5092C9.73185 10.3916 9.39754 10.2572 9.04697 10.2636C8.24342 10.275 7.49606 10.7358 7.08586 11.4695C6.24297 12.9371 6.86671 15.1099 7.6815 16.3045C8.08047 16.896 8.5581 17.5445 9.18746 17.5217C9.46433 17.5111 9.6635 17.4256 9.86963 17.3371C10.1069 17.2351 10.3534 17.1292 10.7384 17.1292C11.1099 17.1292 11.3457 17.2324 11.572 17.3314C11.7871 17.4255 11.9938 17.5159 12.3005 17.5103C12.9523 17.499 13.3626 16.9188 13.7615 16.3272C14.1921 15.6923 14.3813 15.0727 14.41 14.9786C14.4116 14.9733 14.4127 14.9696 14.4133 14.9677C14.4127 14.967 14.4073 14.9646 14.398 14.9602C14.254 14.8935 13.154 14.3837 13.1434 13.0167C13.1328 11.8693 14.016 11.2879 14.155 11.1964C14.1634 11.1909 14.1691 11.1871 14.1717 11.1851C13.6098 10.3433 12.7332 10.2523 12.4298 10.2295ZM25.5958 17.516C26.4499 17.516 27.2422 17.0781 27.6018 16.3841H27.6299V17.4478H28.8886V13.0338C28.8886 11.7539 27.8772 10.9292 26.3206 10.9292C24.8765 10.9292 23.8088 11.7653 23.7695 12.9143H24.9945C25.0956 12.3683 25.5958 12.0099 26.2813 12.0099C27.1129 12.0099 27.5793 12.4024 27.5793 13.1248V13.614L25.8823 13.7164C24.3033 13.8131 23.4492 14.4672 23.4492 15.6048C23.4492 16.7538 24.3314 17.516 25.5958 17.516ZM25.9609 16.4637C25.236 16.4637 24.7753 16.1111 24.7753 15.5707C24.7753 15.0133 25.2192 14.689 26.0677 14.6378L27.5793 14.5411V15.0417C27.5793 15.8722 26.8825 16.4637 25.9609 16.4637ZM33.0637 17.7948C32.5186 19.3476 31.8949 19.8596 30.5687 19.8596C30.4676 19.8596 30.1304 19.8482 30.0518 19.8254V18.7617C30.136 18.7731 30.344 18.7845 30.4507 18.7845C31.052 18.7845 31.3891 18.5285 31.597 17.863L31.7207 17.4705L29.4168 11.0145H30.8385L32.4399 16.2533H32.468L34.0695 11.0145H35.4519L33.0637 17.7948ZM18.3018 9.74035H19.8696C21.0496 9.74035 21.7239 10.3774 21.7239 11.498C21.7239 12.6185 21.0496 13.2613 19.8639 13.2613H18.3018V9.74035Z" fill="white"/>
<rect x="48" width="41.2333" height="27.4889" rx="6.59733" fill="black"/>
<path d="M75.9172 9.01415C75.4094 8.81267 74.6039 8.59021 73.6079 8.59021C71.0652 8.59021 69.2747 9.94607 69.2638 11.8845C69.2426 13.3147 70.5457 14.1091 71.5203 14.586C72.5164 15.0733 72.855 15.3913 72.855 15.8257C72.8449 16.4928 72.0501 16.8003 71.3088 16.8003C70.2809 16.8003 69.7301 16.6417 68.893 16.2706L68.554 16.1115L68.1937 18.3468C68.7976 18.6219 69.9102 18.866 71.0652 18.8767C73.7668 18.8767 75.5256 17.5418 75.5465 15.4761C75.5568 14.3426 74.8687 13.474 73.3853 12.7642C72.4847 12.3086 71.9332 12.0014 71.9332 11.5352C71.9438 11.1114 72.3997 10.6774 73.4162 10.6774C74.2533 10.6561 74.8683 10.8573 75.3342 11.0586L75.567 11.1644L75.9172 9.01415Z" fill="white"/>
<path d="M66.5836 18.7283H64.0089L65.6193 8.77071H68.1939L66.5836 18.7283Z" fill="white"/>
<path fill-rule="evenodd" clip-rule="evenodd" d="M82.5174 8.77071H80.5258C79.9117 8.77071 79.4451 8.95065 79.1801 9.5969L75.3557 18.7282H78.0573C78.0573 18.7282 78.502 17.4992 78.5976 17.2345H81.9034C81.9773 17.5841 82.2106 18.7282 82.2106 18.7282H84.5945L82.5174 8.77071ZM79.3392 15.2007C79.5512 14.6286 80.3672 12.4146 80.3672 12.4146C80.3629 12.4232 80.396 12.3312 80.4455 12.194L80.4461 12.1923L80.4465 12.1912C80.5204 11.9863 80.6301 11.6822 80.7059 11.4613L80.8858 12.3193C80.8858 12.3193 81.3734 14.7028 81.4793 15.2007H79.3392Z" fill="white"/>
<path d="M61.8583 8.77071L59.3368 15.5609L59.0613 14.1837L59.061 14.1829L58.1608 9.60774C58.0125 8.97177 57.5569 8.79169 56.9954 8.77071H52.8529L52.8105 8.97191C53.8209 9.23027 54.7245 9.60257 55.5163 10.0655L57.8112 18.7178H60.5339L64.5809 8.77071H61.8583Z" fill="white"/>
<rect x="95" width="41.2333" height="27.4889" rx="6.59733" fill="black"/>
<path d="M129.361 13.6486C129.361 18.3441 125.562 22.143 120.867 22.143C118.885 22.143 117.068 21.4587 115.628 20.3261C117.61 18.7688 118.861 16.3621 118.861 13.6486C118.861 10.9351 117.587 8.52835 115.628 6.97104C117.068 5.83845 118.885 5.15417 120.867 5.15417C125.562 5.15417 129.361 8.97666 129.361 13.6486Z" fill="white"/>
<path d="M115.628 6.97104C115.628 6.97104 115.628 6.97104 115.628 6.97104C117.587 8.52835 118.861 10.9351 118.861 13.6486C118.861 16.3621 117.61 18.7688 115.628 20.3261L115.605 20.3261C113.646 18.7924 112.372 16.3621 112.372 13.6486C112.372 10.9351 113.646 8.5284 115.605 6.97109C115.605 6.97107 115.605 6.9711 115.605 6.97109L115.628 6.97104Z" fill="black"/>
<path d="M112.372 13.6486C112.372 10.9351 113.646 8.5284 115.605 6.97109C114.165 5.8385 112.349 5.15421 110.366 5.15421C105.671 5.15421 101.872 8.9531 101.872 13.6486C101.872 18.3441 105.671 22.143 110.366 22.143C112.349 22.143 114.165 21.4587 115.605 20.3261C113.646 18.7924 112.372 16.3621 112.372 13.6486Z" fill="white"/>
<rect x="236" width="41.2333" height="27.4889" rx="6.59733" fill="black"/>
<path d="M257.03 21.4412C252.702 21.4412 249.195 17.9341 249.195 13.6069C249.195 9.27969 252.702 5.77258 257.03 5.77258C261.357 5.77258 264.864 9.27969 264.864 13.6069C264.864 15.6847 264.039 17.6774 262.569 19.1466C261.1 20.6158 259.107 21.4412 257.03 21.4412ZM256.563 10.6999C256.134 10.7211 255.729 10.9019 255.427 11.2066C255.125 11.5113 254.947 11.9179 254.929 12.3467C254.929 13.1535 255.423 13.6802 256.47 13.9003L257.203 14.0736C257.916 14.2403 258.21 14.4804 258.21 14.8871C258.21 15.2938 257.696 15.6938 257.03 15.6938C256.793 15.7156 256.555 15.6702 256.342 15.5629C256.13 15.4556 255.952 15.2907 255.829 15.0871C255.793 15.0098 255.736 14.9445 255.664 14.8984C255.592 14.8524 255.508 14.8277 255.423 14.8271H255.029C254.999 14.8327 254.97 14.8442 254.945 14.861C254.919 14.8778 254.897 14.8995 254.879 14.9249C254.862 14.9503 254.85 14.9789 254.843 15.009C254.837 15.0391 254.837 15.0702 254.843 15.1004C254.939 15.4915 255.161 15.8398 255.476 16.0907C255.791 16.3417 256.18 16.4811 256.583 16.4873V17.0473C256.583 17.172 256.632 17.2916 256.721 17.3797C256.809 17.4679 256.928 17.5174 257.053 17.5174C257.178 17.5174 257.297 17.4679 257.385 17.3797C257.474 17.2916 257.523 17.172 257.523 17.0473V16.4806C257.978 16.4754 258.414 16.2928 258.736 15.9715C259.059 15.6501 259.243 15.2156 259.25 14.7604C259.25 13.9136 258.763 13.4269 257.61 13.1802L256.943 13.0335C256.276 12.8668 255.963 12.6468 255.963 12.2734C255.963 11.9 256.363 11.4866 257.03 11.4866C257.24 11.4647 257.451 11.504 257.64 11.5999C257.828 11.6957 257.984 11.844 258.09 12.0267C258.133 12.118 258.2 12.1952 258.285 12.2495C258.37 12.3038 258.469 12.3329 258.57 12.3334H258.883C258.954 12.316 259.016 12.2713 259.055 12.209C259.093 12.1466 259.106 12.0716 259.09 12C259 11.6389 258.798 11.3156 258.513 11.0761C258.228 10.8367 257.874 10.6933 257.503 10.6665V10.2065C257.503 10.0818 257.454 9.96225 257.365 9.87409C257.277 9.78594 257.158 9.73642 257.033 9.73642C256.908 9.73642 256.789 9.78594 256.701 9.87409C256.612 9.96225 256.563 10.0818 256.563 10.2065V10.6999ZM251.156 13.6069C251.156 14.8351 251.543 16.032 252.261 17.0286C252.979 18.0252 253.991 18.7711 255.156 19.1609H255.249C255.329 19.1609 255.405 19.1293 255.462 19.0731C255.518 19.0168 255.549 18.9405 255.549 18.8609V18.7209C255.55 18.5968 255.513 18.4754 255.444 18.3721C255.375 18.2688 255.277 18.1883 255.163 18.1408C254.256 17.7747 253.479 17.1459 252.932 16.335C252.385 15.5242 252.092 14.5684 252.092 13.5902C252.092 12.6121 252.385 11.6563 252.932 10.8454C253.479 10.0346 254.256 9.40578 255.163 9.03966C255.277 8.9933 255.375 8.91401 255.443 8.81188C255.512 8.70976 255.549 8.58944 255.549 8.46626V8.3129C255.55 8.26788 255.539 8.22341 255.519 8.18328C255.499 8.14314 255.469 8.10852 255.432 8.08234C255.396 8.05617 255.353 8.03922 255.309 8.03293C255.264 8.02664 255.219 8.03119 255.176 8.0462C254.007 8.43298 252.989 9.17842 252.267 10.1766C251.545 11.1749 251.156 12.3751 251.156 13.6069ZM262.904 13.6069C262.902 12.3798 262.514 11.1844 261.797 10.1892C261.079 9.19389 260.067 8.44901 258.903 8.05954H258.803C258.72 8.05954 258.64 8.09255 258.582 8.15132C258.523 8.21009 258.49 8.2898 258.49 8.37291V8.47292C258.493 8.60152 258.532 8.72659 258.605 8.83307C258.677 8.93954 258.778 9.02286 258.897 9.073C259.802 9.44019 260.576 10.0691 261.122 10.8791C261.667 11.6892 261.959 12.6436 261.959 13.6202C261.959 14.5969 261.667 15.5513 261.122 16.3614C260.576 17.1714 259.802 17.8003 258.897 18.1675C258.78 18.2181 258.681 18.3009 258.61 18.406C258.539 18.5111 258.5 18.6342 258.496 18.7609V18.8742C258.497 18.9237 258.509 18.9723 258.532 19.0161C258.555 19.0598 258.588 19.0976 258.628 19.1262C258.669 19.1548 258.715 19.1735 258.764 19.1807C258.813 19.1879 258.863 19.1834 258.91 19.1676C260.074 18.7763 261.087 18.0289 261.803 17.0311C262.52 16.0332 262.905 14.8354 262.904 13.6069Z" fill="white"/>
<rect x="189" width="41.2333" height="27.4889" rx="6.59733" fill="black"/>
<path d="M216.757 17.6505L214.306 20.4257C214.253 20.486 214.189 20.534 214.117 20.5669C214.045 20.5997 213.968 20.6167 213.89 20.6166H202.274C202.218 20.6166 202.164 20.5995 202.118 20.5674C202.071 20.5353 202.035 20.4896 202.013 20.4359C201.991 20.3823 201.984 20.3229 201.993 20.2652C202.003 20.2076 202.028 20.154 202.066 20.1112L204.518 17.3361C204.571 17.276 204.635 17.228 204.707 17.1952C204.778 17.1623 204.855 17.1453 204.933 17.1452H216.549C216.604 17.1452 216.658 17.1623 216.705 17.1943C216.751 17.2264 216.788 17.2722 216.81 17.3258C216.832 17.3795 216.839 17.4388 216.829 17.4965C216.82 17.5542 216.795 17.6077 216.757 17.6505ZM214.306 12.0621C214.253 12.0019 214.189 11.9538 214.117 11.921C214.045 11.8881 213.968 11.8712 213.89 11.8712H202.274C202.218 11.8712 202.164 11.8883 202.118 11.9204C202.071 11.9525 202.035 11.9982 202.013 12.0519C201.991 12.1056 201.984 12.1649 201.993 12.2226C202.003 12.2803 202.028 12.3338 202.066 12.3766L204.518 15.1517C204.571 15.2119 204.635 15.2598 204.707 15.2927C204.778 15.3255 204.855 15.3425 204.933 15.3427H216.549C216.604 15.3427 216.658 15.3256 216.705 15.2935C216.751 15.2614 216.788 15.2157 216.81 15.162C216.832 15.1083 216.839 15.049 216.829 14.9913C216.82 14.9336 216.795 14.8801 216.757 14.8373L214.306 12.0621ZM202.274 10.0687H213.89C213.968 10.0688 214.045 10.0519 214.117 10.019C214.189 9.98616 214.253 9.93809 214.306 9.87781L216.757 7.10265C216.795 7.05986 216.82 7.00633 216.829 6.94865C216.839 6.89097 216.832 6.83164 216.81 6.77796C216.788 6.72428 216.751 6.67859 216.705 6.64649C216.658 6.61439 216.604 6.59729 216.549 6.59729H204.933C204.855 6.59743 204.778 6.61445 204.707 6.64729C204.635 6.68013 204.571 6.7281 204.518 6.78822L202.066 9.56338C202.029 9.60612 202.003 9.6596 201.994 9.71721C201.985 9.77483 201.991 9.83411 202.013 9.88777C202.035 9.94142 202.072 9.98711 202.118 10.0193C202.164 10.0514 202.218 10.0686 202.274 10.0687Z" fill="white"/>
<rect x="142" width="41.2333" height="27.4889" rx="6.59733" fill="black"/>
<path d="M151.727 10.6519C151.943 10.9965 152.04 11.3514 152.04 11.7998C152.04 13.2298 150.776 15.0875 149.751 16.392H147.407L146.468 10.965L148.519 10.7768L149.016 14.6385C149.48 13.9081 150.053 12.7602 150.053 11.9776C150.053 11.5492 149.977 11.2574 149.859 11.0171L151.727 10.6519Z" fill="white"/>
<path d="M154.386 13.0419C154.763 13.0419 155.714 12.8751 155.714 12.3533C155.714 12.1028 155.53 11.9778 155.314 11.9778C154.936 11.9778 154.44 12.4158 154.386 13.0419ZM154.343 14.0752C154.343 14.7123 154.709 14.9623 155.196 14.9623C155.725 14.9623 156.232 14.8373 156.891 14.5138L156.643 16.1416C156.179 16.3607 155.455 16.5069 154.753 16.5069C152.971 16.5069 152.334 15.4634 152.334 14.1589C152.334 12.4681 153.371 10.6727 155.509 10.6727C156.686 10.6727 157.345 11.3098 157.345 12.1968C157.345 13.6268 155.444 14.0649 154.343 14.0752Z" fill="white"/>
<path d="M163.265 11.9046C163.265 12.1133 163.233 12.4161 163.2 12.6139L162.585 16.3712H160.587L161.148 12.9269C161.159 12.8335 161.192 12.6454 161.192 12.5411C161.192 12.2905 161.03 12.228 160.835 12.228C160.576 12.228 160.317 12.3427 160.144 12.4265L159.507 16.3713H157.498L158.416 10.7459H160.155L160.177 11.1949C160.587 10.934 161.127 10.6519 161.893 10.6519C162.909 10.6517 163.265 11.1529 163.265 11.9046Z" fill="white"/>
<path d="M169.196 11.2886C169.768 10.8924 170.309 10.6727 171.053 10.6727C172.079 10.6727 172.436 11.1739 172.436 11.9256C172.436 12.1344 172.403 12.4371 172.371 12.6349L171.756 16.3922H169.758L170.33 12.8751C170.34 12.7811 170.363 12.6664 170.363 12.5937C170.363 12.3116 170.2 12.249 170.006 12.249C169.758 12.249 169.509 12.3534 169.325 12.4474L168.688 16.3923H166.691L167.263 12.8752C167.273 12.7812 167.295 12.6665 167.295 12.5937C167.295 12.3117 167.133 12.2491 166.939 12.2491C166.679 12.2491 166.421 12.3638 166.248 12.4475L165.61 16.3924H163.602L164.52 10.7669H166.237L166.291 11.2365C166.691 10.9551 167.23 10.673 167.954 10.673C168.58 10.6727 168.991 10.9337 169.196 11.2886Z" fill="white"/>
<path d="M176.411 12.9271C176.411 12.4679 176.292 12.1548 175.936 12.1548C175.148 12.1548 174.986 13.501 174.986 14.1897C174.986 14.7121 175.137 15.0355 175.493 15.0355C176.238 15.0355 176.411 13.6158 176.411 12.9271ZM172.956 14.1066C172.956 12.3325 173.928 10.6726 176.163 10.6726C177.848 10.6726 178.464 11.633 178.464 12.9586C178.464 14.7121 177.502 16.5279 175.213 16.5279C173.517 16.5279 172.956 15.4528 172.956 14.1066Z" fill="white"/>
</svg>
