<svg width="13" height="11" viewBox="0 0 13 11" fill="none" xmlns="http://www.w3.org/2000/svg">
<path fill-rule="evenodd" clip-rule="evenodd" d="M0.893682 4.73543C4.38334 3.18307 6.71032 2.15967 7.87463 1.66521C11.199 0.253426 11.8897 0.00818437 12.34 8.63431e-05C12.439 -0.00169473 12.6604 0.0233625 12.8038 0.142186C12.9249 0.242518 12.9583 0.378053 12.9742 0.473179C12.9901 0.568305 13.01 0.785005 12.9942 0.954328C12.8141 2.88695 12.0346 7.57691 11.638 9.74148C11.4702 10.6574 11.1398 10.9645 10.8199 10.9945C10.1248 11.0599 9.59692 10.5255 8.92364 10.0749C7.87007 9.36971 7.27488 8.93076 6.25221 8.24267C5.07035 7.44746 5.8365 7.0104 6.51004 6.29612C6.68631 6.10919 9.74916 3.26471 9.80845 3.00668C9.81586 2.9744 9.82274 2.85411 9.75275 2.79059C9.68275 2.72707 9.57945 2.74879 9.5049 2.76606C9.39923 2.79055 7.71615 3.9264 4.45566 6.1736C3.97792 6.50854 3.54521 6.67174 3.1575 6.66319C2.73009 6.65376 1.90793 6.41644 1.29673 6.21359C0.547079 5.96478 -0.0487324 5.83324 0.00314937 5.41069C0.0301726 5.1906 0.327017 4.96551 0.893682 4.73543Z" fill="currentColor"/>
</svg>
