{
  "accessors": [
    {
      "name": "coin-Mesh_0_positions",
      "componentType": 5126,
      "count": 321,
      "min": [
        -1.7126760482788086,
        -1.7126760482788086,
        0.2641330063343048
      ],
      "max": [
        1.7126760482788086,
        1.7126760482788086,
        0.3350619971752167
      ],
      "type": "VEC3",
      "bufferView": 0,
      "byteOffset": 0
    },
    {
      "name": "coin-Mesh_0_normals",
      "componentType": 5126,
      "count": 321,
      "min": [
        -0.6187087893486023,
        -0.6187087893486023,
        0.785620391368866
      ],
      "max": [
        0.6187087893486023,
        0.6187087893486023,
        1
      ],
      "type": "VEC3",
      "bufferView": 1,
      "byteOffset": 0
    },
    {
      "name": "coin-Mesh_0_texcoords",
      "componentType": 5126,
      "count": 321,
      "min": [
        0.033851999789476395,
        0.03326699882745743
      ],
      "max": [
        0.07357099652290344,
        0.07325199991464615
      ],
      "type": "VEC2",
      "bufferView": 2,
      "byteOffset": 0
    },
    {
      "name": "coin-Mesh_0_indices",
      "componentType": 5123,
      "count": 1728,
      "min": [
        0
      ],
      "max": [
        320
      ],
      "type": "SCALAR",
      "bufferView": 3,
      "byteOffset": 0
    },
    {
      "name": "coin-Mesh_1_positions",
      "componentType": 5126,
      "count": 1864,
      "min": [
        -2.444204092025757,
        -2.444204092025757,
        -0.3558669984340668
      ],
      "max": [
        2.444204092025757,
        2.444204092025757,
        0.2998589873313904
      ],
      "type": "VEC3",
      "bufferView": 0,
      "byteOffset": 3852
    },
    {
      "name": "coin-Mesh_1_normals",
      "componentType": 5126,
      "count": 1864,
      "min": [
        -0.9999858736991882,
        -0.9999858736991882,
        -1
      ],
      "max": [
        0.9999858736991882,
        0.9999858736991882,
        1
      ],
      "type": "VEC3",
      "bufferView": 1,
      "byteOffset": 3852
    },
    {
      "name": "coin-Mesh_1_texcoords",
      "componentType": 5126,
      "count": 1864,
      "min": [
        0.019512999802827835,
        0.0184480007737875
      ],
      "max": [
        0.9470549821853638,
        0.9087589979171753
      ],
      "type": "VEC2",
      "bufferView": 2,
      "byteOffset": 2568
    },
    {
      "name": "coin-Mesh_1_indices",
      "componentType": 5123,
      "count": 7104,
      "min": [
        0
      ],
      "max": [
        1863
      ],
      "type": "SCALAR",
      "bufferView": 3,
      "byteOffset": 3456
    },
    {
      "name": "text-Mesh_0_positions",
      "componentType": 5126,
      "count": 1940,
      "min": [
        -0.8176270127296448,
        -0.26775801181793213,
        0.26939699053764343
      ],
      "max": [
        0.7769500017166138,
        0.2518100142478943,
        0.35561299324035645
      ],
      "type": "VEC3",
      "bufferView": 0,
      "byteOffset": 26220
    },
    {
      "name": "text-Mesh_0_normals",
      "componentType": 5126,
      "count": 1940,
      "min": [
        -1,
        -1,
        -1
      ],
      "max": [
        1,
        1,
        1
      ],
      "type": "VEC3",
      "bufferView": 1,
      "byteOffset": 26220
    },
    {
      "name": "text-Mesh_0_texcoords",
      "componentType": 5126,
      "count": 1940,
      "min": [
        0,
        0
      ],
      "max": [
        1,
        1
      ],
      "type": "VEC2",
      "bufferView": 2,
      "byteOffset": 17480
    },
    {
      "name": "text-Mesh_0_indices",
      "componentType": 5123,
      "count": 4920,
      "min": [
        0
      ],
      "max": [
        1939
      ],
      "type": "SCALAR",
      "bufferView": 3,
      "byteOffset": 17664
    },
    {
      "name": "crystals-Mesh_0_positions",
      "componentType": 5126,
      "count": 4308,
      "min": [
        -2.158468008041382,
        -2.158468008041382,
        0.10467500239610672
      ],
      "max": [
        2.158468008041382,
        2.1586310863494873,
        0.261694997549057
      ],
      "type": "VEC3",
      "bufferView": 0,
      "byteOffset": 49500
    },
    {
      "name": "crystals-Mesh_0_normals",
      "componentType": 5126,
      "count": 4308,
      "min": [
        -0.9960105419158936,
        -0.9372560977935791,
        -0.06515896320343018
      ],
      "max": [
        0.8728470206260681,
        0.896734893321991,
        0.9999471306800842
      ],
      "type": "VEC3",
      "bufferView": 1,
      "byteOffset": 49500
    },
    {
      "name": "crystals-Mesh_0_texcoords",
      "componentType": 5126,
      "count": 4308,
      "min": [
        0.0007520000217482448,
        0.0007520000217482448
      ],
      "max": [
        0.9992480278015137,
        0.9992480278015137
      ],
      "type": "VEC2",
      "bufferView": 2,
      "byteOffset": 33000
    },
    {
      "name": "crystals-Mesh_0_indices",
      "componentType": 5123,
      "count": 4308,
      "min": [
        0
      ],
      "max": [
        4307
      ],
      "type": "SCALAR",
      "bufferView": 3,
      "byteOffset": 27504
    }
  ],
  "asset": {
    "generator": "obj2gltf",
    "version": "2.0"
  },
  "buffers": [
    {
      "name": "yzycoin",
      "byteLength": 305976,
      "uri": "data:application/octet-stream;base64,"
    }
  ],
  "bufferViews": [
    {
      "name": "bufferView_0",
      "buffer": 0,
      "byteLength": 101196,
      "byteOffset": 0,
      "byteStride": 12,
      "target": 34962
    },
    {
      "name": "bufferView_1",
      "buffer": 0,
      "byteLength": 101196,
      "byteOffset": 101196,
      "byteStride": 12,
      "target": 34962
    },
    {
      "name": "bufferView_2",
      "buffer": 0,
      "byteLength": 67464,
      "byteOffset": 202392,
      "byteStride": 8,
      "target": 34962
    },
    {
      "name": "bufferView_3",
      "buffer": 0,
      "byteLength": 36120,
      "byteOffset": 269856,
      "target": 34963
    }
  ],
  "materials": [
    {
      "name": "interior",
      "pbrMetallicRoughness": {
        "baseColorFactor": [
          0.21404114365578,
          0.21404114365578,
          0.21404114365578,
          1
        ],
        "metallicFactor": 0,
        "roughnessFactor": 1
      },
      "emissiveFactor": [
        0,
        0,
        0
      ],
      "alphaMode": "OPAQUE",
      "doubleSided": false
    },
    {
      "name": "exterior",
      "pbrMetallicRoughness": {
        "baseColorFactor": [
          0.21404114365578,
          0.21404114365578,
          0.21404114365578,
          1
        ],
        "metallicFactor": 0,
        "roughnessFactor": 1
      },
      "emissiveFactor": [
        0,
        0,
        0
      ],
      "alphaMode": "OPAQUE",
      "doubleSided": false
    },
    {
      "name": "crystals",
      "pbrMetallicRoughness": {
        "baseColorFactor": [
          0.02999999932945,
          0.02999999932945,
          0.02999999932945,
          1
        ],
        "metallicFactor": 0,
        "roughnessFactor": 1
      },
      "emissiveFactor": [
        0,
        0,
        0
      ],
      "alphaMode": "OPAQUE",
      "doubleSided": false
    }
  ],
  "meshes": [
    {
      "name": "coin-Mesh",
      "primitives": [
        {
          "attributes": {
            "POSITION": 0,
            "NORMAL": 1,
            "TEXCOORD_0": 2
          },
          "indices": 3,
          "material": 0,
          "mode": 4
        },
        {
          "attributes": {
            "POSITION": 4,
            "NORMAL": 5,
            "TEXCOORD_0": 6
          },
          "indices": 7,
          "material": 1,
          "mode": 4
        }
      ]
    },
    {
      "name": "text-Mesh",
      "primitives": [
        {
          "attributes": {
            "POSITION": 8,
            "NORMAL": 9,
            "TEXCOORD_0": 10
          },
          "indices": 11,
          "material": 0,
          "mode": 4
        }
      ]
    },
    {
      "name": "crystals-Mesh",
      "primitives": [
        {
          "attributes": {
            "POSITION": 12,
            "NORMAL": 13,
            "TEXCOORD_0": 14
          },
          "indices": 15,
          "material": 2,
          "mode": 4
        }
      ]
    }
  ],
  "nodes": [
    {
      "name": "coin",
      "mesh": 0
    },
    {
      "name": "text",
      "mesh": 1
    },
    {
      "name": "crystals",
      "mesh": 2
    }
  ],
  "scene": 0,
  "scenes": [
    {
      "nodes": [
        0,
        1,
        2
      ]
    }
  ]
}
