<svg width="42" height="28" viewBox="0 0 42 28" fill="none" xmlns="http://www.w3.org/2000/svg">
<rect width="41.2333" height="27.4889" rx="6.59733" fill="black"/>
<path fill-rule="evenodd" clip-rule="evenodd" d="M10.0252 10.1215C10.5647 10.167 11.1041 9.84842 11.4413 9.44456C11.7728 9.02933 11.992 8.47189 11.9358 7.90308C11.4581 7.92583 10.8681 8.22161 10.531 8.63685C10.2219 8.9952 9.95781 9.57539 10.0252 10.1215ZM16.4424 17.4478V8.57996H19.7297C21.4267 8.57996 22.6124 9.7631 22.6124 11.4923C22.6124 13.2215 21.4042 14.416 19.6847 14.416H17.8023V17.4478H16.4424ZM11.9301 10.2295C11.4549 10.2018 11.0212 10.3742 10.671 10.5134C10.4456 10.603 10.2547 10.6789 10.1095 10.6789C9.94653 10.6789 9.74778 10.599 9.52462 10.5092C9.23221 10.3916 8.89791 10.2572 8.54734 10.2636C7.74379 10.275 6.99643 10.7358 6.58623 11.4695C5.74334 12.9371 6.36708 15.1099 7.18187 16.3045C7.58083 16.896 8.05847 17.5445 8.68782 17.5217C8.9647 17.5111 9.16387 17.4256 9.36999 17.3371C9.6073 17.2351 9.85381 17.1292 10.2387 17.1292C10.6103 17.1292 10.846 17.2324 11.0723 17.3314C11.2875 17.4255 11.4941 17.5159 11.8009 17.5103C12.4527 17.499 12.8629 16.9188 13.2619 16.3272C13.6924 15.6923 13.8816 15.0727 13.9103 14.9786C13.912 14.9733 13.9131 14.9696 13.9137 14.9677C13.913 14.967 13.9077 14.9646 13.8983 14.9602C13.7544 14.8935 12.6543 14.3837 12.6438 13.0167C12.6332 11.8693 13.5163 11.2879 13.6553 11.1964C13.6638 11.1909 13.6695 11.1871 13.6721 11.1851C13.1102 10.3433 12.2336 10.2523 11.9301 10.2295ZM25.0961 17.516C25.9502 17.516 26.7426 17.0781 27.1022 16.3841H27.1303V17.4478H28.389V13.0338C28.389 11.7539 27.3775 10.9292 25.821 10.9292C24.3769 10.9292 23.3092 11.7653 23.2699 12.9143H24.4949C24.596 12.3683 25.0961 12.0099 25.7817 12.0099C26.6133 12.0099 27.0797 12.4024 27.0797 13.1248V13.614L25.3827 13.7164C23.8037 13.8131 22.9496 14.4672 22.9496 15.6048C22.9496 16.7538 23.8318 17.516 25.0961 17.516ZM25.4613 16.4637C24.7364 16.4637 24.2756 16.1111 24.2756 15.5707C24.2756 15.0133 24.7195 14.689 25.568 14.6378L27.0796 14.5411V15.0417C27.0796 15.8722 26.3828 16.4637 25.4613 16.4637ZM32.564 17.7948C32.019 19.3476 31.3952 19.8596 30.0691 19.8596C29.9679 19.8596 29.6308 19.8482 29.5521 19.8254V18.7617C29.6364 18.7731 29.8443 18.7845 29.9511 18.7845C30.5523 18.7845 30.8895 18.5285 31.0974 17.863L31.221 17.4705L28.9172 11.0145H30.3388L31.9403 16.2533H31.9684L33.5699 11.0145H34.9522L32.564 17.7948ZM17.8022 9.74035H19.3699C20.55 9.74035 21.2243 10.3774 21.2243 11.498C21.2243 12.6185 20.55 13.2613 19.3643 13.2613H17.8022V9.74035Z" fill="white"/>
</svg>
