<svg width="42" height="28" viewBox="0 0 42 28" fill="none" xmlns="http://www.w3.org/2000/svg">
<rect x="0.766724" width="41.2333" height="27.4889" rx="6.59733" fill="black"/>
<path d="M21.7962 21.4413C17.469 21.4413 13.9619 17.9342 13.9619 13.6069C13.9619 9.27972 17.469 5.77261 21.7962 5.77261C26.1235 5.77261 29.6306 9.27972 29.6306 13.6069C29.6306 15.6847 28.8052 17.6774 27.3359 19.1466C25.8667 20.6159 23.874 21.4413 21.7962 21.4413ZM21.3295 10.6999C20.9009 10.7212 20.4956 10.9019 20.1934 11.2066C19.8912 11.5113 19.7137 11.918 19.696 12.3468C19.696 13.1535 20.1894 13.6803 21.2362 13.9003L21.9696 14.0737C22.683 14.2404 22.9764 14.4804 22.9764 14.8871C22.9764 15.2938 22.463 15.6939 21.7962 15.6939C21.5594 15.7156 21.3212 15.6702 21.109 15.5629C20.8968 15.4556 20.719 15.2907 20.5961 15.0871C20.5597 15.0099 20.5022 14.9445 20.4302 14.8985C20.3583 14.8525 20.2748 14.8277 20.1894 14.8271H19.796C19.7657 14.8327 19.7369 14.8442 19.7111 14.861C19.6853 14.8778 19.6631 14.8995 19.6458 14.9249C19.6284 14.9503 19.6163 14.9789 19.61 15.0091C19.6037 15.0392 19.6035 15.0702 19.6093 15.1005C19.7051 15.4915 19.9279 15.8398 20.2428 16.0908C20.5577 16.3417 20.9469 16.4812 21.3495 16.4873V17.0474C21.3495 17.172 21.399 17.2916 21.4872 17.3798C21.5753 17.4679 21.6949 17.5174 21.8196 17.5174C21.9442 17.5174 22.0638 17.4679 22.152 17.3798C22.2401 17.2916 22.2896 17.172 22.2896 17.0474V16.4806C22.7449 16.4755 23.1801 16.2928 23.5027 15.9715C23.8252 15.6502 24.0096 15.2156 24.0165 14.7604C24.0165 13.9136 23.5298 13.4269 22.3763 13.1802L21.7096 13.0335C21.0428 12.8668 20.7294 12.6468 20.7294 12.2734C20.7294 11.9001 21.1295 11.4867 21.7962 11.4867C22.0062 11.4647 22.2181 11.5041 22.4062 11.5999C22.5943 11.6957 22.7507 11.844 22.8564 12.0267C22.8992 12.118 22.9671 12.1953 23.052 12.2495C23.137 12.3038 23.2356 12.3329 23.3364 12.3334H23.6498C23.7211 12.316 23.7826 12.2713 23.8213 12.209C23.8599 12.1466 23.8726 12.0716 23.8565 12.0001C23.7662 11.639 23.5641 11.3156 23.2791 11.0762C22.9942 10.8367 22.6409 10.6934 22.2696 10.6666V10.2065C22.2696 10.0818 22.2201 9.96228 22.132 9.87413C22.0438 9.78597 21.9242 9.73645 21.7996 9.73645C21.6749 9.73645 21.5553 9.78597 21.4672 9.87413C21.379 9.96228 21.3295 10.0818 21.3295 10.2065V10.6999ZM15.9222 13.6069C15.9229 14.8351 16.3095 16.0321 17.0274 17.0287C17.7452 18.0252 18.758 18.7711 19.9227 19.161H20.016C20.0956 19.161 20.1719 19.1294 20.2282 19.0731C20.2844 19.0168 20.3161 18.9405 20.3161 18.8609V18.7209C20.3163 18.5968 20.2796 18.4754 20.2108 18.3721C20.1419 18.2689 20.044 18.1884 19.9293 18.1408C19.0223 17.7747 18.2454 17.1459 17.6982 16.3351C17.1511 15.5242 16.8588 14.5684 16.8588 13.5903C16.8588 12.6121 17.1511 11.6563 17.6982 10.8455C18.2454 10.0346 19.0223 9.40581 19.9293 9.03969C20.0435 8.99334 20.1412 8.91404 20.2101 8.81191C20.2789 8.70979 20.3158 8.58947 20.3161 8.46629V8.31293C20.3165 8.26791 20.306 8.22344 20.2856 8.18331C20.2652 8.14317 20.2354 8.10855 20.1988 8.08238C20.1622 8.0562 20.1197 8.03925 20.0752 8.03296C20.0306 8.02667 19.9851 8.03122 19.9427 8.04623C18.7732 8.43301 17.7553 9.17845 17.0335 10.1767C16.3118 11.1749 15.9229 12.3751 15.9222 13.6069ZM27.6703 13.6069C27.6682 12.3799 27.2809 11.1844 26.5632 10.1892C25.8454 9.19392 24.8334 8.44904 23.6698 8.05957H23.5698C23.4867 8.05957 23.407 8.09259 23.3482 8.15135C23.2894 8.21012 23.2564 8.28983 23.2564 8.37294V8.47295C23.2591 8.60155 23.2989 8.72662 23.3711 8.8331C23.4433 8.93957 23.5447 9.0229 23.6631 9.07303C24.5681 9.44022 25.3429 10.0691 25.8885 10.8792C26.434 11.6892 26.7254 12.6436 26.7254 13.6203C26.7254 14.5969 26.434 15.5513 25.8885 16.3614C25.3429 17.1715 24.5681 17.8003 23.6631 18.1675C23.5469 18.2182 23.4476 18.3009 23.3768 18.406C23.3059 18.5111 23.2665 18.6342 23.2631 18.7609V18.8743C23.2637 18.9237 23.2759 18.9723 23.2989 19.0161C23.3218 19.0599 23.3548 19.0976 23.3951 19.1262C23.4354 19.1548 23.4819 19.1735 23.5308 19.1807C23.5797 19.1879 23.6296 19.1834 23.6765 19.1676C24.841 18.7763 25.8531 18.0289 26.5698 17.0311C27.2864 16.0333 27.6714 14.8355 27.6703 13.6069Z" fill="white"/>
</svg>
