<svg width="42" height="28" viewBox="0 0 42 28" fill="none" xmlns="http://www.w3.org/2000/svg">
<rect x="0.383301" width="41.2333" height="27.4889" rx="6.59733" fill="black"/>
<path d="M34.7442 13.6486C34.7442 18.3441 30.9453 22.143 26.2498 22.143C24.2678 22.143 22.4509 21.4587 21.0116 20.3261C22.9936 18.7688 24.2442 16.3621 24.2442 13.6486C24.2442 10.9351 22.97 8.52835 21.0116 6.97104C22.4509 5.83845 24.2678 5.15417 26.2498 5.15417C30.9453 5.15417 34.7442 8.97666 34.7442 13.6486Z" fill="white"/>
<path d="M21.0116 6.97104C21.0116 6.97104 21.0116 6.97104 21.0116 6.97104C22.97 8.52835 24.2442 10.9351 24.2442 13.6486C24.2442 16.3621 22.9936 18.7688 21.0116 20.3261L20.9879 20.3261C19.0295 18.7924 17.7554 16.3621 17.7554 13.6486C17.7554 10.9351 19.0296 8.5284 20.988 6.97109C20.988 6.97107 20.988 6.9711 20.988 6.97109L21.0116 6.97104Z" fill="black"/>
<path d="M17.7554 13.6486C17.7554 10.9351 19.0296 8.5284 20.988 6.97109C19.5487 5.8385 17.7318 5.15421 15.7498 5.15421C11.0543 5.15421 7.25537 8.9531 7.25537 13.6486C7.25537 18.3441 11.0543 22.143 15.7498 22.143C17.7318 22.143 19.5486 21.4587 20.9879 20.3261C19.0295 18.7924 17.7554 16.3621 17.7554 13.6486Z" fill="white"/>
</svg>
