<svg width="42" height="28" viewBox="0 0 42 28" fill="none" xmlns="http://www.w3.org/2000/svg">
<rect x="0.0750732" width="41.2333" height="27.4889" rx="6.59733" fill="black"/>
<path d="M9.80184 10.6519C10.0179 10.9965 10.1153 11.3514 10.1153 11.7998C10.1153 13.2298 8.85132 15.0876 7.82549 16.3921H5.48243L4.54272 10.965L6.59433 10.7769L7.09116 14.6386C7.5554 13.9081 8.12826 12.7602 8.12826 11.9776C8.12826 11.5492 8.05229 11.2574 7.93353 11.0172L9.80184 10.6519Z" fill="white"/>
<path d="M12.4609 13.0419C12.8384 13.0419 13.7889 12.8751 13.7889 12.3534C13.7889 12.1028 13.6055 11.9778 13.3893 11.9778C13.0112 11.9778 12.5149 12.4158 12.4609 13.0419ZM12.4176 14.0753C12.4176 14.7123 12.7844 14.9623 13.2706 14.9623C13.8001 14.9623 14.3071 14.8373 14.966 14.5139L14.7179 16.1417C14.2536 16.3608 13.53 16.507 12.8277 16.507C11.0462 16.507 10.4086 15.4635 10.4086 14.1589C10.4086 12.4681 11.4457 10.6728 13.584 10.6728C14.7612 10.6728 15.4195 11.3098 15.4195 12.1968C15.4196 13.6268 13.5194 14.0649 12.4176 14.0753Z" fill="white"/>
<path d="M21.3404 11.9047C21.3404 12.1134 21.3077 12.4161 21.275 12.6139L20.6595 16.3713H18.6618L19.2233 12.927C19.234 12.8335 19.2667 12.6455 19.2667 12.5411C19.2667 12.2906 19.1046 12.2281 18.9098 12.2281C18.651 12.2281 18.3916 12.3427 18.2189 12.4265L17.5819 16.3713H15.573L16.4907 10.7459H18.2295L18.2515 11.1949C18.6617 10.934 19.2019 10.6519 19.9682 10.6519C20.9836 10.6518 21.3404 11.1529 21.3404 11.9047Z" fill="white"/>
<path d="M27.2711 11.2886C27.8433 10.8924 28.3836 10.6728 29.1284 10.6728C30.1541 10.6728 30.511 11.1739 30.511 11.9257C30.511 12.1344 30.4783 12.4371 30.4457 12.6349L29.8308 16.3923H27.8325L28.4048 12.8752C28.4153 12.7811 28.4375 12.6665 28.4375 12.5937C28.4375 12.3116 28.2754 12.2491 28.0806 12.2491C27.8325 12.2491 27.5844 12.3534 27.4002 12.4475L26.7634 16.3923H24.7657L25.3379 12.8752C25.3484 12.7812 25.37 12.6665 25.37 12.5938C25.37 12.3117 25.2077 12.2491 25.0137 12.2491C24.7543 12.2491 24.4955 12.3638 24.3227 12.4475L23.6852 16.3924H21.6769L22.5947 10.7669H24.3122L24.3662 11.2366C24.7657 10.9551 25.3054 10.673 26.0289 10.673C26.6554 10.6728 27.0655 10.9337 27.2711 11.2886Z" fill="white"/>
<path d="M34.4862 12.9272C34.4862 12.4679 34.3673 12.1548 34.0112 12.1548C33.2229 12.1548 33.0609 13.501 33.0609 14.1897C33.0609 14.7122 33.2122 15.0355 33.5683 15.0355C34.3134 15.0355 34.4862 13.6158 34.4862 12.9272ZM31.0307 14.1066C31.0307 12.3326 32.0025 10.6726 34.2381 10.6726C35.9228 10.6726 36.5386 11.633 36.5386 12.9587C36.5386 14.7121 35.5774 16.528 33.2877 16.528C31.5922 16.528 31.0307 15.4529 31.0307 14.1066Z" fill="white"/>
</svg>
