<svg width="42" height="28" viewBox="0 0 42 28" fill="none" xmlns="http://www.w3.org/2000/svg">
<rect x="0.69165" width="41.2333" height="27.4889" rx="6.59733" fill="black"/>
<path d="M28.6087 9.01418C28.1009 8.8127 27.2954 8.59024 26.2994 8.59024C23.7568 8.59024 21.9663 9.9461 21.9553 11.8846C21.9342 13.3148 23.2372 14.1091 24.2118 14.586C25.2079 15.0733 25.5466 15.3914 25.5466 15.8257C25.5364 16.4928 24.7416 16.8003 24.0003 16.8003C22.9724 16.8003 22.4216 16.6418 21.5846 16.2706L21.2455 16.1115L20.8852 18.3468C21.4891 18.6219 22.6017 18.8661 23.7568 18.8768C26.4584 18.8768 28.2172 17.5419 28.238 15.4761C28.2483 14.3426 27.5602 13.474 26.0768 12.7643C25.1763 12.3086 24.6248 12.0014 24.6248 11.5353C24.6353 11.1115 25.0912 10.6774 26.1078 10.6774C26.9448 10.6561 27.5598 10.8573 28.0257 11.0587L28.2586 11.1644L28.6087 9.01418Z" fill="white"/>
<path d="M19.2751 18.7284H16.7004L18.3108 8.77074H20.8854L19.2751 18.7284Z" fill="white"/>
<path fill-rule="evenodd" clip-rule="evenodd" d="M35.2089 8.77074H33.2174C32.6032 8.77074 32.1366 8.95068 31.8716 9.59693L28.0472 18.7282H30.7488C30.7488 18.7282 31.1936 17.4992 31.2892 17.2345H34.5949C34.6688 17.5841 34.9021 18.7282 34.9021 18.7282H37.2861L35.2089 8.77074ZM32.0307 15.2007C32.2428 14.6287 33.0587 12.4147 33.0587 12.4147C33.0544 12.4232 33.0876 12.3312 33.137 12.194L33.1376 12.1924L33.1381 12.1913C33.212 11.9864 33.3217 11.6823 33.3974 11.4613L33.5774 12.3193C33.5774 12.3193 34.0649 14.7029 34.1708 15.2007H32.0307Z" fill="white"/>
<path d="M14.5499 8.77074L12.0284 15.5609L11.7528 14.1838L11.7526 14.1829L10.8523 9.60777C10.704 8.9718 10.2484 8.79172 9.68694 8.77074H5.54445L5.50208 8.97194C6.51241 9.2303 7.41606 9.6026 8.20785 10.0655L10.5027 18.7178H13.2254L17.2724 8.77074H14.5499Z" fill="white"/>
</svg>
